<?xml version="1.0" encoding="UTF-8" standalone="no"?>
<!DOCTYPE svg PUBLIC "-//W3C//DTD SVG 1.1//EN" "http://www.w3.org/Graphics/SVG/1.1/DTD/svg11.dtd">
<svg width="100%" height="100%" viewBox="0 0 506 71" version="1.1" xmlns="http://www.w3.org/2000/svg" xmlns:xlink="http://www.w3.org/1999/xlink" xml:space="preserve" xmlns:serif="http://www.serif.com/" style="fill-rule:evenodd;clip-rule:evenodd;stroke-linejoin:round;stroke-miterlimit:2;">
    <g id="ArtBoard1" transform="matrix(0.631787,0,0,0.117582,0,0)">
        <rect x="0" y="0" width="800" height="600" style="fill:none;"/>
        <g transform="matrix(1.58281,0,0,8.5047,79.8481,323.516)">
            <g transform="matrix(1,0,0,1,-50,-50)">
                <path d="M16.15,81.848C13.278,81.853 10.465,81.025 8.055,79.464C0.769,74.751 -1.309,65.004 2.046,51.276C4.71,40.419 10.967,30.773 19.794,23.913C27.256,18.171 36.178,14.632 45.547,13.698C57.222,12.58 72.352,14.9 79.999,24.721C88.289,28.265 94.944,34.808 98.628,43.037C99.947,46.123 99.701,49.664 97.968,52.538C96.632,54.643 94.567,56.185 92.168,56.866L22.599,80.484L22.327,80.576C20.374,81.409 18.273,81.842 16.15,81.848ZM51.063,17.435C49.303,17.435 47.579,17.521 45.928,17.679C37.312,18.539 29.106,21.794 22.243,27.075C14.13,33.381 8.38,42.246 5.931,52.225C3.9,60.538 2.996,71.428 10.227,76.104C12.813,77.762 15.977,78.268 18.951,77.498L20.892,76.839C21.11,76.744 21.328,76.642 21.543,76.534C25.19,74.798 27.638,71.231 27.946,67.203C28.016,66.139 28.076,65.074 28.137,64.011C28.564,56.459 29.006,48.65 32.706,41.431C39.699,27.28 55.268,19.352 70.825,22.02C65.146,18.707 57.84,17.435 51.063,17.435ZM64.853,25.54C60.252,25.525 55.702,26.503 51.514,28.406C44.918,31.514 39.548,36.743 36.267,43.255C32.952,49.721 32.553,56.772 32.13,64.237C32.069,65.311 32.008,66.387 31.939,67.463C31.798,69.657 31.169,71.792 30.1,73.713L92.109,52.662C95.039,51.204 96.312,47.645 94.972,44.66C91.431,36.793 84.858,30.68 76.755,27.718C72.951,26.28 68.919,25.542 64.853,25.54L64.853,25.54Z" style="fill:rgb(4,115,231);fill-rule:nonzero;"/>
                <path d="M35.309,31.503C35.722,31.882 35.958,32.418 35.958,32.979C35.958,33.672 35.598,34.318 35.008,34.683C32.22,36.373 28.898,36.351 26.093,36.335L25.643,36.335C23.183,36.355 20.103,37.255 19.233,39.355C18.363,41.455 19.803,43.925 21.193,46.315C21.513,46.865 21.823,47.395 22.103,47.915C23.863,51.185 24.323,53.985 23.503,56.475C22.682,58.582 21.246,60.394 19.383,61.675C19.133,61.875 18.883,62.065 18.623,62.265C17.516,63.028 16.525,63.947 15.683,64.995C14.353,66.887 15.353,69.556 16.32,71.337C16.803,72.194 16.613,73.283 15.868,73.926C15.511,74.213 15.066,74.37 14.608,74.37C13.866,74.37 13.182,73.959 12.833,73.305C10.603,69.295 10.433,65.505 12.413,62.695C13.473,61.302 14.749,60.086 16.193,59.095C16.433,58.905 16.673,58.725 16.903,58.535C18.129,57.721 19.099,56.577 19.703,55.235C20.153,53.865 19.773,52.035 18.573,49.805C18.323,49.325 18.033,48.835 17.743,48.335C16.033,45.395 13.903,41.745 15.543,37.815C17.223,33.765 21.993,32.335 25.593,32.335L26.123,32.335C28.665,32.351 31.088,32.368 32.91,31.275C33.669,30.81 34.651,30.903 35.309,31.503L35.309,31.503Z" style="fill:rgb(4,115,231);fill-rule:nonzero;"/>
                <path d="M60.668,54.241C60.177,51.731 61.752,49.243 64.23,48.613C66.182,48.146 68.229,48.953 69.337,50.626C69.465,50.829 69.532,51.064 69.532,51.304C69.532,51.9 69.112,52.421 68.529,52.547L68.352,52.587C67.855,52.712 67.33,52.524 67.024,52.113C66.417,51.23 65.213,50.968 64.293,51.518C63.74,51.843 63.377,52.416 63.321,53.055C63.22,54.09 63.925,55.045 64.944,55.253C65.464,55.339 65.886,55.727 66.016,56.238L66.062,56.443C66.084,56.538 66.096,56.635 66.096,56.732C66.096,57.429 65.521,58.004 64.824,58.004C64.773,58.004 64.722,58 64.672,57.994C62.686,57.709 61.081,56.204 60.668,54.241Z" style="fill:rgb(4,115,231);fill-rule:nonzero;"/>
                <path d="M64.469,37.113C63.978,34.604 65.553,32.115 68.031,31.486C69.983,31.019 72.03,31.826 73.138,33.499C73.266,33.702 73.333,33.937 73.333,34.176C73.333,34.773 72.913,35.293 72.33,35.419L72.153,35.459C71.656,35.584 71.13,35.396 70.825,34.985C70.218,34.103 69.014,33.84 68.094,34.391C67.541,34.715 67.178,35.289 67.122,35.928C67.021,36.962 67.726,37.917 68.745,38.126C69.265,38.211 69.687,38.599 69.817,39.11L69.863,39.315C69.885,39.41 69.896,39.507 69.896,39.604C69.896,40.302 69.322,40.876 68.625,40.876C68.574,40.876 68.523,40.873 68.473,40.867C66.487,40.581 64.882,39.076 64.469,37.113Z" style="fill:rgb(4,115,231);fill-rule:nonzero;"/>
                <path d="M45.594,41.738C45.103,39.229 46.678,36.74 49.156,36.111C51.108,35.644 53.155,36.451 54.263,38.124C54.391,38.327 54.458,38.562 54.458,38.801C54.458,39.398 54.038,39.918 53.455,40.044L53.278,40.084C52.781,40.209 52.255,40.021 51.95,39.61C51.343,38.728 50.139,38.465 49.219,39.016C48.666,39.34 48.303,39.914 48.247,40.553C48.146,41.587 48.851,42.542 49.87,42.751C50.39,42.836 50.812,43.224 50.942,43.735L50.988,43.94C51.01,44.035 51.021,44.132 51.021,44.229C51.021,44.927 50.447,45.501 49.75,45.501C49.699,45.501 49.648,45.498 49.598,45.492C47.612,45.206 46.007,43.701 45.594,41.738Z" style="fill:rgb(4,115,231);fill-rule:nonzero;"/>
                <path d="M41.633,59.004C41.141,56.495 42.716,54.006 45.195,53.377C47.146,52.91 49.193,53.717 50.301,55.39C50.429,55.593 50.497,55.827 50.497,56.067C50.497,56.664 50.077,57.184 49.494,57.31L49.316,57.35C48.82,57.475 48.294,57.287 47.989,56.876C47.381,55.993 46.177,55.731 45.258,56.282C44.704,56.606 44.341,57.179 44.285,57.819C44.184,58.853 44.89,59.808 45.908,60.017C46.429,60.102 46.851,60.49 46.98,61.001L47.027,61.206C47.049,61.301 47.06,61.398 47.06,61.495C47.06,62.193 46.486,62.767 45.788,62.767C45.737,62.767 45.687,62.764 45.636,62.758C43.65,62.472 42.045,60.967 41.633,59.004Z" style="fill:rgb(4,115,231);fill-rule:nonzero;"/>
            </g>
        </g>
        <g transform="matrix(2.01628,0,0,4.55097,-254.912,-192.03)">
            <path d="M209.164,81.883L209.164,66.721L239.173,66.721L239.173,81.883L227.986,81.883L227.986,153.703L220.35,153.703L220.35,81.883L209.164,81.883Z" style="fill:rgb(4,115,231);fill-rule:nonzero;"/>
            <path d="M244.828,153.703L236.55,153.703L249.164,66.721L259.119,66.721L271.715,153.703L263.437,153.703L254.284,86.597L253.999,86.597L244.828,153.703ZM244.311,119.513L263.865,119.513L263.865,133.869L244.311,133.869L244.311,119.513Z" style="fill:rgb(4,115,231);fill-rule:nonzero;"/>
            <path d="M303.026,97.173L295.212,97.173C295.069,94.766 294.778,92.621 294.338,90.738C293.898,88.856 293.333,87.249 292.643,85.918C291.953,84.587 291.159,83.568 290.261,82.86C289.363,82.152 288.391,81.798 287.344,81.798C285.453,81.798 283.806,82.909 282.402,85.132C280.999,87.355 279.91,90.583 279.137,94.816C278.364,99.049 277.977,104.181 277.977,110.212C277.977,116.413 278.367,121.623 279.146,125.841C279.925,130.06 281.016,133.246 282.42,135.398C283.823,137.55 285.447,138.626 287.291,138.626C288.325,138.626 289.286,138.3 290.172,137.649C291.058,136.997 291.846,136.042 292.536,134.782C293.226,133.522 293.8,131.986 294.258,130.174C294.715,128.362 295.034,126.295 295.212,123.973L303.026,124.058C302.824,128.05 302.322,131.894 301.519,135.589C300.716,139.284 299.64,142.583 298.29,145.485C296.94,148.387 295.334,150.681 293.472,152.365C291.611,154.05 289.509,154.892 287.166,154.892C283.907,154.892 280.996,153.137 278.432,149.626C275.869,146.115 273.847,141.032 272.366,134.378C270.886,127.724 270.145,119.669 270.145,110.212C270.145,100.726 270.894,92.657 272.393,86.003C273.892,79.349 275.926,74.273 278.495,70.777C281.064,67.28 283.954,65.531 287.166,65.531C289.283,65.531 291.248,66.239 293.062,67.655C294.876,69.071 296.485,71.131 297.888,73.835C299.292,76.539 300.437,79.844 301.323,83.752C302.209,87.659 302.777,92.133 303.026,97.173Z" style="fill:rgb(4,115,231);fill-rule:nonzero;"/>
            <path d="M340.903,110.212C340.903,119.697 340.151,127.767 338.646,134.421C337.142,141.075 335.096,146.15 332.509,149.647C329.922,153.144 327.017,154.892 323.794,154.892C320.547,154.892 317.632,153.137 315.051,149.626C312.47,146.115 310.431,141.032 308.932,134.378C307.433,127.724 306.684,119.669 306.684,110.212C306.684,100.726 307.433,92.657 308.932,86.003C310.431,79.349 312.47,74.273 315.051,70.777C317.632,67.28 320.547,65.531 323.794,65.531C327.017,65.531 329.922,67.28 332.509,70.777C335.096,74.273 337.142,79.349 338.646,86.003C340.151,92.657 340.903,100.726 340.903,110.212ZM333.071,110.212C333.071,104.068 332.688,98.886 331.92,94.667C331.153,90.448 330.074,87.249 328.682,85.068C327.291,82.888 325.661,81.798 323.794,81.798C321.926,81.798 320.297,82.888 318.905,85.068C317.514,87.249 316.434,90.448 315.667,94.667C314.9,98.886 314.516,104.068 314.516,110.212C314.516,116.356 314.9,121.538 315.667,125.757C316.434,129.975 317.514,133.175 318.905,135.355C320.297,137.535 321.926,138.626 323.794,138.626C325.661,138.626 327.291,137.535 328.682,135.355C330.074,133.175 331.153,129.975 331.92,125.757C332.688,121.538 333.071,116.356 333.071,110.212Z" style="fill:rgb(4,115,231);fill-rule:nonzero;"/>
            <path d="M366.345,89.57C366.155,85.55 365.37,82.428 363.99,80.205C362.61,77.983 360.874,76.871 358.78,76.871C357.282,76.871 355.985,77.431 354.891,78.549C353.797,79.667 352.949,81.196 352.349,83.136C351.748,85.076 351.448,87.277 351.448,89.74C351.448,91.807 351.653,93.591 352.063,95.092C352.473,96.592 353.015,97.845 353.687,98.851C354.359,99.856 355.081,100.691 355.854,101.356C356.627,102.022 357.371,102.567 358.084,102.992L361.653,105.2C362.818,105.88 364.014,106.8 365.239,107.961C366.464,109.122 367.6,110.651 368.647,112.548C369.693,114.445 370.541,116.795 371.189,119.598C371.837,122.401 372.161,125.757 372.161,129.664C372.161,134.591 371.629,138.965 370.564,142.788C369.5,146.61 367.96,149.626 365.944,151.834C363.927,154.043 361.492,155.147 358.638,155.147C355.902,155.147 353.535,154.114 351.537,152.047C349.539,149.98 347.974,147.042 346.845,143.234C345.715,139.425 345.09,134.902 344.971,129.664L350.502,129.664C350.609,132.807 351.04,135.419 351.795,137.5C352.551,139.581 353.52,141.124 354.704,142.129C355.887,143.135 357.186,143.637 358.602,143.637C360.16,143.637 361.549,143.05 362.768,141.875C363.987,140.7 364.947,139.057 365.649,136.948C366.351,134.838 366.702,132.368 366.702,129.537C366.702,126.96 366.396,124.85 365.783,123.208C365.17,121.566 364.344,120.207 363.303,119.131C362.262,118.055 361.088,117.106 359.779,116.285L355.462,113.482C352.536,111.585 350.219,108.796 348.513,105.115C346.806,101.434 345.952,96.564 345.952,90.505C345.952,85.493 346.523,81.119 347.665,77.381C348.807,73.643 350.353,70.734 352.304,68.653C354.255,66.572 356.455,65.531 358.905,65.531C361.379,65.531 363.565,66.565 365.462,68.632C367.359,70.699 368.855,73.537 369.949,77.147C371.043,80.758 371.614,84.899 371.662,89.57L366.345,89.57Z" style="fill:rgb(68,155,224);fill-rule:nonzero;"/>
            <path d="M408.807,95.007L403.241,95.007C403.027,92.175 402.628,89.684 402.045,87.532C401.462,85.38 400.749,83.554 399.904,82.053C399.06,80.552 398.117,79.42 397.076,78.655C396.036,77.891 394.933,77.508 393.767,77.508C391.662,77.508 389.779,78.768 388.12,81.288C386.461,83.808 385.153,87.503 384.195,92.374C383.238,97.244 382.759,103.19 382.759,110.212C382.759,117.29 383.238,123.265 384.195,128.135C385.153,133.005 386.464,136.686 388.129,139.178C389.794,141.669 391.668,142.915 393.749,142.915C394.903,142.915 396,142.54 397.041,141.79C398.082,141.039 399.024,139.928 399.869,138.456C400.713,136.983 401.43,135.178 402.019,133.04C402.607,130.903 403.015,128.446 403.241,125.672L408.807,125.714C408.51,129.99 407.936,133.918 407.085,137.5C406.235,141.082 405.147,144.168 403.82,146.759C402.494,149.35 400.981,151.353 399.28,152.769C397.579,154.184 395.724,154.892 393.713,154.892C390.55,154.892 387.731,153.101 385.257,149.52C382.783,145.938 380.835,140.806 379.414,134.124C377.992,127.441 377.282,119.471 377.282,110.212C377.282,100.925 377.995,92.947 379.423,86.279C380.85,79.611 382.801,74.486 385.275,70.904C387.749,67.322 390.561,65.531 393.713,65.531C395.652,65.531 397.463,66.19 399.146,67.506C400.829,68.823 402.343,70.748 403.687,73.282C405.031,75.817 406.143,78.903 407.023,82.541C407.903,86.18 408.498,90.335 408.807,95.007Z" style="fill:rgb(68,155,224);fill-rule:nonzero;"/>
            <path d="M414.998,153.703L414.998,66.721L428.022,66.721C430.853,66.721 433.205,67.881 435.078,70.203C436.952,72.525 438.352,75.732 439.28,79.823C440.208,83.915 440.672,88.636 440.672,93.988C440.672,99.311 440.205,103.99 439.271,108.025C438.337,112.059 436.934,115.195 435.06,117.432C433.187,119.669 430.835,120.787 428.004,120.787L418.138,120.787L418.138,109.49L427.505,109.49C429.289,109.49 430.743,108.881 431.867,107.664C432.991,106.446 433.815,104.676 434.338,102.355C434.861,100.033 435.123,97.244 435.123,93.988C435.123,90.703 434.858,87.857 434.329,85.451C433.8,83.044 432.973,81.196 431.849,79.908C430.725,78.62 429.253,77.976 427.433,77.976L420.511,77.976L420.511,153.703L414.998,153.703ZM433.035,114.459L442.063,153.703L435.783,153.703L426.934,114.459L433.035,114.459Z" style="fill:rgb(68,155,224);fill-rule:nonzero;"/>
            <rect x="447.112" y="66.721" width="5.513" height="86.983" style="fill:rgb(68,155,224);fill-rule:nonzero;"/>
            <path d="M460.386,153.703L460.386,66.721L473.41,66.721C476.253,66.721 478.608,67.952 480.475,70.416C482.343,72.879 483.74,76.241 484.668,80.503C485.596,84.764 486.06,89.556 486.06,94.879C486.06,100.231 485.593,105.037 484.659,109.299C483.725,113.56 482.322,116.929 480.449,119.407C478.575,121.885 476.223,123.123 473.392,123.123L464.436,123.123L464.436,111.996L472.893,111.996C474.689,111.996 476.146,111.252 477.264,109.766C478.382,108.279 479.203,106.248 479.726,103.671C480.249,101.095 480.511,98.164 480.511,94.879C480.511,91.595 480.249,88.679 479.726,86.13C479.203,83.582 478.379,81.586 477.255,80.142C476.131,78.698 474.653,77.976 472.821,77.976L465.899,77.976L465.899,153.703L460.386,153.703Z" style="fill:rgb(68,155,224);fill-rule:nonzero;"/>
            <path d="M490.484,78.018L490.484,66.721L518.763,66.721L518.763,78.018L507.362,78.018L507.362,153.703L501.867,153.703L501.867,78.018L490.484,78.018Z" style="fill:rgb(68,155,224);fill-rule:nonzero;"/>
        </g>
    </g>
</svg>
